<svg xmlns="http://www.w3.org/2000/svg" id="Ebene_1" data-name="Ebene 1" viewBox="0 0 368.05 295.43"><defs><style>.cls-1{fill:#ededed;}.cls-2{fill:#05f630;}</style></defs><title>Logo_White_Bildmarke_Slogan_Web</title><path class="cls-1" d="M523.62,341.2v99.68l5.2-5.14c4.27-4.17,8.21-7.94,11.77-11.61l.11-.11h0c13.15-13.6,21-25.8,21-51.58v-95H521.42l-38.1,38.1h40.3Z" transform="translate(-259.71 -277.39)"></path><path class="cls-2" d="M394.93,306.4l39.28,39.28,9.46,9.46L456,342.79h53.87L470.6,382.07,443.67,409l-26.94-26.94L388.55,353.9l-24.83-24.84v38.31L379.39,383l-15.67,15.68v42.17c-23.17-23.17-38.09-32.91-38.09-68.45v-95h40.29Z" transform="translate(-259.71 -277.39)"></path><rect class="cls-2" x="96.45" y="257.17" width="34.52" height="14.56"></rect><path class="cls-2" d="M439.61,525.3H426.89q-5.77,0-5.77,5.17v22.74q0,5.17,5.77,5.17h36.3v14.44h-36.3a20,20,0,0,1-14.32-5.59,18.53,18.53,0,0,1-5.89-14V530.47a18.51,18.51,0,0,1,5.89-14,20.05,20.05,0,0,1,14.32-5.6h27.16Z" transform="translate(-259.71 -277.39)"></path><polygon class="cls-2" points="295.79 295.43 281.35 295.43 244.18 253.68 244.18 295.43 229.74 295.43 229.74 233.47 244.18 233.47 281.35 274.86 281.35 233.47 295.79 233.47 295.79 295.43"></polygon><polygon class="cls-2" points="367.85 247.91 316.24 247.91 316.24 257.17 364.48 257.17 364.48 271.61 316.24 271.61 316.24 280.99 367.73 280.99 367.73 295.43 301.8 295.43 301.8 233.47 367.85 233.47 367.85 247.91"></polygon><path class="cls-1" d="M469,510.86h-6.75L447.82,525.3H469v14.12h0v32.66a19.81,19.81,0,0,0,8.54-4.85,18.53,18.53,0,0,0,5.89-14V510.86Z" transform="translate(-259.71 -277.39)"></path><polygon class="cls-2" points="80.44 295.43 66 295.43 66 257.65 40.26 294.35 14.51 257.65 14.51 295.43 0.07 295.43 0.07 233.47 15.23 233.47 40.26 269.2 65.4 233.47 80.44 233.47 80.44 295.43"></polygon><path class="cls-1" d="M284.41,483.61h-19.3v3.47H283.2v5.4H265.11v8.86h-5.4V478.21h24.7Z" transform="translate(-259.71 -277.39)"></path><path class="cls-1" d="M323.88,501.34h-5.4V478.21h5.4Z" transform="translate(-259.71 -277.39)"></path><path class="cls-1" d="M384.81,483.61H374.37v17.73H369V483.61H358.53v-5.4h26.28Z" transform="translate(-259.71 -277.39)"></path><path class="cls-1" d="M443.85,501.34h-5.4l-13.91-15.57v15.57h-5.4V478.21h5.4l13.91,15.48V478.21h5.4Z" transform="translate(-259.71 -277.39)"></path><path class="cls-1" d="M503.21,483.61H483.9v3.47H502v5.4H483.9v3.46h19.26v5.4H478.5V478.21h24.71Z" transform="translate(-259.71 -277.39)"></path><path class="cls-1" d="M565.48,494.21a7.41,7.41,0,0,1-1.75,5,6.06,6.06,0,0,1-4.77,2.15H539v-5.4h20c.75,0,1.13-.57,1.13-1.73s-.38-1.73-1.13-1.73H544.43a6.09,6.09,0,0,1-4.78-2.16,7.18,7.18,0,0,1-1.79-4.95,7.41,7.41,0,0,1,1.84-5,6,6,0,0,1,4.73-2.12h20v5.4h-20c-.75,0-1.12.59-1.12,1.76s.37,1.71,1.12,1.71H559a6.12,6.12,0,0,1,4.78,2.15A7.44,7.44,0,0,1,565.48,494.21Z" transform="translate(-259.71 -277.39)"></path><path class="cls-1" d="M627.76,494.21a7.41,7.41,0,0,1-1.75,5,6.06,6.06,0,0,1-4.77,2.15h-20v-5.4h20c.75,0,1.12-.57,1.12-1.73s-.37-1.73-1.12-1.73H606.7a6.07,6.07,0,0,1-4.77-2.16,7.19,7.19,0,0,1-1.8-4.95,7.42,7.42,0,0,1,1.85-5,6,6,0,0,1,4.72-2.12h20v5.4h-20c-.75,0-1.13.59-1.13,1.76s.38,1.71,1.13,1.71h14.57a6.12,6.12,0,0,1,4.78,2.15A7.44,7.44,0,0,1,627.76,494.21Z" transform="translate(-259.71 -277.39)"></path></svg>