<svg xmlns="http://www.w3.org/2000/svg" width="555.164" height="63.455" viewBox="0 0 555.164 63.455"><g id="Gruppe_6" data-name="Gruppe 6" transform="translate(-92.698 -7967.833)"><g id="Gruppe_2" data-name="Gruppe 2" transform="translate(-486.445 -504.429)"><path id="Pfad_34" data-name="Pfad 34" d="M440.183,525.551H427.242q-5.87,0-5.87,5.26v23.136q0,5.26,5.87,5.26h36.931V573.9H427.242a20.348,20.348,0,0,1-14.569-5.687,18.853,18.853,0,0,1-5.992-14.244V530.811a18.832,18.832,0,0,1,5.992-14.243,20.4,20.4,0,0,1,14.569-5.7h27.632Z" transform="translate(454.323 7961.814)" fill="#05f630"></path><path id="Pfad_37" data-name="Pfad 37" d="M469.368,510.86H462.5L447.82,525.551h21.548v14.366h0v33.228a20.153,20.153,0,0,0,8.689-4.934,18.853,18.853,0,0,0,5.992-14.244V510.86Z" transform="translate(455.038 7961.813)" fill="#fff"></path></g><g id="Logo_White_Bildmarke_Web_2" data-name="Logo_White_Bildmarke_Web 2" transform="translate(92.698 7968.235)"><path id="Pfad_48" data-name="Pfad 48" d="M498.861,302.028v38.44l2.005-1.982c1.647-1.608,3.166-3.062,4.539-4.477l.042-.042h0c5.071-5.245,8.1-9.949,8.1-19.891V277.44H498.013L483.32,292.133h15.541Z" transform="translate(-422.51 -277.415)" fill="#fff"></path><path id="Pfad_49" data-name="Pfad 49" d="M352.354,288.583,367.5,303.731l3.648,3.648,4.755-4.763h20.774l-15.144,15.148L371.15,328.149,360.761,317.76,349.894,306.9l-9.575-9.579V312.1l6.043,6.027-6.043,6.047v16.262c-8.935-8.935-14.689-12.691-14.689-26.4V277.4h15.537Z" transform="translate(-325.63 -277.39)" fill="#05f630"></path></g><path id="Pfad_59" data-name="Pfad 59" d="M80.545-20.648H24.119V0H6.675V-62.3H83.927v15.4H24.119v11.392H80.545Z" transform="translate(270.302 8030.133)" fill="#f7f7f7"></path><g id="Gruppe_3" data-name="Gruppe 3" transform="translate(-395.911 -504.429)"><path id="Pfad_34-2" data-name="Pfad 34" d="M440.183,525.551H427.242q-5.87,0-5.87,5.26v23.136q0,5.26,5.87,5.26h36.931V573.9H427.242a20.348,20.348,0,0,1-14.569-5.687,18.853,18.853,0,0,1-5.992-14.244V530.811a18.832,18.832,0,0,1,5.992-14.243,20.4,20.4,0,0,1,14.569-5.7h27.632Z" transform="translate(454.323 7961.814)" fill="#05f630"></path><path id="Pfad_37-2" data-name="Pfad 37" d="M469.368,510.86H462.5L447.82,525.551h21.548v14.366h0v33.228a20.153,20.153,0,0,0,8.689-4.934,18.853,18.853,0,0,0,5.992-14.244V510.86Z" transform="translate(455.038 7961.813)" fill="#fff"></path></g><path id="Pfad_60" data-name="Pfad 60" d="M73.6,0H6.675V-62.3H73.6q8.366,0,13.661,5.073a17.2,17.2,0,0,1,5.3,12.994v26.166a17.2,17.2,0,0,1-5.3,12.994Q81.969,0,73.6,0ZM69.776-46.9H24.119V-15.4H69.776A5.271,5.271,0,0,0,73.6-16.865a5.039,5.039,0,0,0,1.513-3.782v-21A5.039,5.039,0,0,0,73.6-45.435,5.271,5.271,0,0,0,69.776-46.9Z" transform="translate(555.302 8030.133)" fill="#f7f7f7"></path><path id="Pfad_58" data-name="Pfad 58" d="M40.6-21.14H4.34V-29.4H40.6Z" transform="translate(204.802 8023)" fill="#f7f7f7"></path></g></svg>