<svg xmlns="http://www.w3.org/2000/svg" width="222" height="222" viewBox="0 0 222 222"><g id="Gruppe_5" data-name="Gruppe 5" transform="translate(-713 -4254)"><g id="Rechteck_75" data-name="Rechteck 75" transform="translate(713 4254)" fill="#222" stroke="#05f630" stroke-width="5"><rect width="222" height="222" stroke="none"></rect><rect x="2.5" y="2.5" width="217" height="217" fill="none"></rect></g><g id="Logo_White_Bildmarke_Slogan_Web_2" data-name="Logo_White_Bildmarke_Slogan_Web 2" transform="translate(748.894 4356.373)"><path id="Pfad_18" data-name="Pfad 18" d="M500.826,305.137v43.3l2.259-2.233c1.855-1.811,3.566-3.449,5.113-5.043l.048-.048h0c5.712-5.908,9.122-11.207,9.122-22.406V277.44h-17.5l-16.55,16.55h17.506Z" transform="translate(-391.488 -277.423)" fill="#ededed"></path><path id="Pfad_19" data-name="Pfad 19" d="M355.734,290,372.8,307.06l4.109,4.109,5.356-5.365h23.4L388.6,322.868l-11.7,11.7-11.7-11.7-12.241-12.233-10.786-10.79v16.642l6.807,6.79-6.807,6.811V348.4c-10.065-10.065-16.546-14.3-16.546-29.734V277.4h17.5Z" transform="translate(-302.297 -277.4)" fill="#05f630"></path></g><path id="Pfad_63" data-name="Pfad 63" d="M1.777-26.824H11.813v3.814H5.646v7.684h5.3V-11.5h-5.3v7.684h6.166V0H1.777ZM28.462-5.209Q28.462.424,22.9.438T17.347-5.209V-26.824h3.869V-5.209q0,1.818,1.682,1.818t1.7-1.818V-26.824h3.869ZM34.68-26.824h5.633q5.154.014,5.154,5.646v4.033a4.484,4.484,0,0,1-3.049,4.662L46.766,0H42.528L39.041-11.8l-.492.068V0H34.68Zm3.869,3.814v7.684h.889a3.735,3.735,0,0,0,1.107-.109A1.66,1.66,0,0,0,41.6-17.145v-4.033q0-1.832-1.682-1.832Zm13.2-3.814H61.789v3.814H55.623v7.684h5.3V-11.5h-5.3v7.684h6.166V0H51.754Zm35.473,0v3.814H83.6V0H79.734V-23.01H76.111v-3.814Zm5.261,0H98.12q5.154.014,5.154,5.646v4.033a4.484,4.484,0,0,1-3.049,4.662L104.573,0h-4.238L96.849-11.8l-.492.068V0H92.488Zm3.869,3.814v7.684h.889a3.735,3.735,0,0,0,1.107-.109,1.66,1.66,0,0,0,1.053-1.709v-4.033q0-1.832-1.682-1.832ZM120.348-9.516,121.606,0H117.7l-.752-5.687h-3.951L112.227,0h-3.9l1.258-9.475,2.734-17.35h5.3Zm-3.91,0-1.477-11.156L113.485-9.516ZM126.8-26.824h3.869V0H126.8Zm10.292,0h3.869l3.664,15.559V-26.824h3.582V0h-3.869l-3.527-15.066V0h-3.719Zm17.47,0H164.6v3.814H158.43v7.684h5.3V-11.5h-5.3v7.684H164.6V0H154.561Zm15.706,0H175.9q5.154.014,5.154,5.646v4.033a4.484,4.484,0,0,1-3.049,4.662L182.353,0h-4.238l-3.486-11.8-.492.068V0h-3.869Zm3.869,3.814v7.684h.889a3.735,3.735,0,0,0,1.107-.109,1.66,1.66,0,0,0,1.053-1.709v-4.033q0-1.832-1.682-1.832Z" transform="translate(732.5 4333.612)" fill="#fff"></path></g></svg>